<mxfile host="app.diagrams.net" agent="Mozilla/5.0 (Windows NT 10.0; Win64; x64) AppleWebKit/537.36 (KHTML, like Gecko) Chrome/134.0.0.0 Safari/537.36" version="26.2.4">
  <diagram id="1fAXp8ROTmKGNZpp4TxJ" name="Modelo LÃ³gico">
    <mxGraphModel dx="1871" dy="562" grid="1" gridSize="10" guides="1" tooltips="1" connect="1" arrows="1" fold="1" page="1" pageScale="1" pageWidth="827" pageHeight="1169" math="0" shadow="0">
      <root>
        <mxCell id="0" />
        <mxCell id="1" parent="0" />
        <mxCell id="5NLU6uSb5USnL1YUGB4F-1" value="Produto" style="whiteSpace=wrap;html=1;align=center;" vertex="1" parent="1">
          <mxGeometry x="284" y="40" width="100" height="80" as="geometry" />
        </mxCell>
        <mxCell id="5NLU6uSb5USnL1YUGB4F-16" style="edgeStyle=orthogonalEdgeStyle;rounded=0;orthogonalLoop=1;jettySize=auto;html=1;entryX=0.5;entryY=0;entryDx=0;entryDy=0;endArrow=none;startFill=0;" edge="1" parent="1" source="5NLU6uSb5USnL1YUGB4F-2" target="5NLU6uSb5USnL1YUGB4F-13">
          <mxGeometry relative="1" as="geometry" />
        </mxCell>
        <mxCell id="5NLU6uSb5USnL1YUGB4F-2" value="Pedido" style="whiteSpace=wrap;html=1;align=center;" vertex="1" parent="1">
          <mxGeometry x="480" y="160" width="100" height="80" as="geometry" />
        </mxCell>
        <mxCell id="5NLU6uSb5USnL1YUGB4F-5" value="Entity" style="whiteSpace=wrap;html=1;align=center;" vertex="1" parent="1">
          <mxGeometry x="-122" y="640" width="100" height="80" as="geometry" />
        </mxCell>
        <mxCell id="5NLU6uSb5USnL1YUGB4F-8" value="Entity" style="whiteSpace=wrap;html=1;align=center;" vertex="1" parent="1">
          <mxGeometry x="-240" y="640" width="100" height="80" as="geometry" />
        </mxCell>
        <mxCell id="5NLU6uSb5USnL1YUGB4F-10" value="Pagameto" style="whiteSpace=wrap;html=1;align=center;" vertex="1" parent="1">
          <mxGeometry x="480" y="440" width="100" height="80" as="geometry" />
        </mxCell>
        <mxCell id="5NLU6uSb5USnL1YUGB4F-11" value="Cliente" style="whiteSpace=wrap;html=1;align=center;" vertex="1" parent="1">
          <mxGeometry x="90" y="160" width="100" height="80" as="geometry" />
        </mxCell>
        <mxCell id="5NLU6uSb5USnL1YUGB4F-14" style="edgeStyle=orthogonalEdgeStyle;rounded=0;orthogonalLoop=1;jettySize=auto;html=1;entryX=1;entryY=0.5;entryDx=0;entryDy=0;endArrow=none;startFill=0;" edge="1" parent="1" source="5NLU6uSb5USnL1YUGB4F-12" target="5NLU6uSb5USnL1YUGB4F-11">
          <mxGeometry relative="1" as="geometry" />
        </mxCell>
        <mxCell id="5NLU6uSb5USnL1YUGB4F-15" style="edgeStyle=orthogonalEdgeStyle;rounded=0;orthogonalLoop=1;jettySize=auto;html=1;entryX=0;entryY=0.5;entryDx=0;entryDy=0;endArrow=none;startFill=0;" edge="1" parent="1" source="5NLU6uSb5USnL1YUGB4F-12" target="5NLU6uSb5USnL1YUGB4F-2">
          <mxGeometry relative="1" as="geometry" />
        </mxCell>
        <mxCell id="5NLU6uSb5USnL1YUGB4F-12" value="Possui" style="shape=rhombus;perimeter=rhombusPerimeter;whiteSpace=wrap;html=1;align=center;" vertex="1" parent="1">
          <mxGeometry x="274" y="170" width="120" height="60" as="geometry" />
        </mxCell>
        <mxCell id="5NLU6uSb5USnL1YUGB4F-17" style="edgeStyle=orthogonalEdgeStyle;rounded=0;orthogonalLoop=1;jettySize=auto;html=1;exitX=0.5;exitY=1;exitDx=0;exitDy=0;entryX=0.5;entryY=0;entryDx=0;entryDy=0;endArrow=none;startFill=0;" edge="1" parent="1" source="5NLU6uSb5USnL1YUGB4F-13" target="5NLU6uSb5USnL1YUGB4F-10">
          <mxGeometry relative="1" as="geometry" />
        </mxCell>
        <mxCell id="5NLU6uSb5USnL1YUGB4F-13" value="Possui" style="shape=rhombus;perimeter=rhombusPerimeter;whiteSpace=wrap;html=1;align=center;" vertex="1" parent="1">
          <mxGeometry x="470" y="310" width="120" height="60" as="geometry" />
        </mxCell>
        <mxCell id="5NLU6uSb5USnL1YUGB4F-18" value="(1, N)" style="text;html=1;align=center;verticalAlign=middle;resizable=0;points=[];autosize=1;strokeColor=none;fillColor=none;" vertex="1" parent="1">
          <mxGeometry x="190" y="160" width="50" height="30" as="geometry" />
        </mxCell>
        <mxCell id="5NLU6uSb5USnL1YUGB4F-19" value="(1, N)" style="text;html=1;align=center;verticalAlign=middle;resizable=0;points=[];autosize=1;strokeColor=none;fillColor=none;" vertex="1" parent="1">
          <mxGeometry x="430" y="160" width="50" height="30" as="geometry" />
        </mxCell>
        <mxCell id="5NLU6uSb5USnL1YUGB4F-20" value="(1, 1)" style="text;html=1;align=center;verticalAlign=middle;resizable=0;points=[];autosize=1;strokeColor=none;fillColor=none;" vertex="1" parent="1">
          <mxGeometry x="530" y="240" width="50" height="30" as="geometry" />
        </mxCell>
        <mxCell id="5NLU6uSb5USnL1YUGB4F-21" value="(1, 1)" style="text;html=1;align=center;verticalAlign=middle;resizable=0;points=[];autosize=1;strokeColor=none;fillColor=none;" vertex="1" parent="1">
          <mxGeometry x="530" y="410" width="50" height="30" as="geometry" />
        </mxCell>
      </root>
    </mxGraphModel>
  </diagram>
</mxfile>
